<?xml version="1.0" standalone="no"?><!DOCTYPE svg PUBLIC "-//W3C//DTD SVG 1.1//EN" "http://www.w3.org/Graphics/SVG/1.1/DTD/svg11.dtd"><svg t="1597916275919" class="icon" viewBox="0 0 1024 1024" version="1.1" xmlns="http://www.w3.org/2000/svg" p-id="3199" xmlns:xlink="http://www.w3.org/1999/xlink" width="64" height="64"><defs><style type="text/css"></style></defs><path d="M773.5625 821.375h-506.25a56.25 56.25 0 1 0 0 112.5h506.25a56.25 56.25 0 0 0 0-112.5z m-534.375-335.25A90.84375 90.84375 0 0 0 362.65625 455.75a620.4375 620.4375 0 0 1 43.59375-59.625L427.625 658.25a84.375 84.375 0 0 0 170.4375 0l20.53125-263.8125A496.40625 496.40625 0 0 1 661.34375 455.75a90.84375 90.84375 0 1 0 155.8125-93.65625 838.125 838.125 0 0 0-258.46875-258.46875 90.84375 90.84375 0 0 0-93.375 0 838.125 838.125 0 0 0-258.46875 258.46875 90.84375 90.84375 0 0 0 31.21875 124.03125z" p-id="3200"></path></svg>