<svg t="1597919003973" class="icon" viewBox="0 0 1024 1024" version="1.1" xmlns="http://www.w3.org/2000/svg" p-id="1039" width="64" height="64" stroke-width="60" stroke="currentColor" ><path d="M854.7734375 388.07421875v150.29296875c0 15.8203125 10.546875 26.3671875 26.3671875 26.3671875s26.3671875-10.546875 26.3671875-26.3671875v-184.5703125c0-29.00390625-23.73046875-52.734375-52.734375-52.734375h-184.5703125c-15.8203125 0-26.3671875 10.546875-26.3671875 26.3671875s10.546875 26.3671875 26.3671875 26.3671875h145.01953125l-224.12109375 224.12109375-168.75-168.75c-5.2734375-5.2734375-13.18359375-7.91015625-18.45703125-7.91015625-7.91015625 0-13.18359375 2.63671875-18.45703125 7.91015625l-261.03515625 261.03515625c-10.546875 10.546875-10.546875 26.3671875 0 36.9140625 10.546875 10.546875 26.3671875 10.546875 36.9140625 0l242.578125-242.578125 168.75 168.75c5.2734375 5.2734375 13.18359375 7.91015625 18.45703125 7.91015625 7.91015625 0 13.18359375-2.63671875 18.45703125-7.91015625l245.21484375-245.21484375z" p-id="1040"></path></svg>