<?xml version="1.0" standalone="no"?><!DOCTYPE svg PUBLIC "-//W3C//DTD SVG 1.1//EN" "http://www.w3.org/Graphics/SVG/1.1/DTD/svg11.dtd"><svg t="1597916292109" class="icon" viewBox="0 0 1024 1024" version="1.1" xmlns="http://www.w3.org/2000/svg" p-id="3479" xmlns:xlink="http://www.w3.org/1999/xlink" width="64" height="64"><defs><style type="text/css"></style></defs><path d="M265.0625 398.65625c14.34375 14.25 37.59375 14.25 51.9375 0l195-193.03125 194.90625 193.03125c14.34375 14.25 37.59375 14.25 51.9375 0l13.03125-12.84375c14.34375-14.25 14.34375-37.3125 0-51.46875L551.1875 115.8125l-0.1875-0.1875-13.03125-12.84375c-14.34375-14.25-37.59375-14.25-51.9375 0l-13.03125 12.84375-0.1875 0.1875-220.6875 218.53125c-14.34375 14.25-14.34375 37.3125 0 51.46875l12.9375 12.84375z m286.125-21.5625l-0.1875-0.1875-13.03125-12.84375c-14.34375-14.25-37.59375-14.25-51.9375 0l-13.03125 12.84375-0.1875 0.1875-220.6875 218.53125c-14.34375 14.25-14.34375 37.3125 0 51.46875l13.03125 12.84375c14.34375 14.25 37.59375 14.25 51.9375 0L512 467l194.90625 193.03125c14.34375 14.25 37.59375 14.25 51.9375 0l13.03125-12.84375c14.34375-14.25 14.34375-37.3125 0-51.46875L551.1875 377.09375z m-13.21875 248.25c-14.34375-14.25-37.59375-14.25-51.9375 0L252.125 857a36.159375 36.159375 0 0 0 0 51.46875l13.03125 12.84375c14.34375 14.15625 37.59375 14.15625 51.9375 0L512 728.28125l194.90625 193.03125c14.34375 14.15625 37.59375 14.15625 51.9375 0l13.03125-12.84375c14.34375-14.25 14.34375-37.3125 0-51.46875L537.96875 625.34375z" p-id="3480"></path></svg>