<?xml version="1.0" standalone="no"?><!DOCTYPE svg PUBLIC "-//W3C//DTD SVG 1.1//EN" "http://www.w3.org/Graphics/SVG/1.1/DTD/svg11.dtd"><svg t="1597916266884" class="icon" viewBox="0 0 1024 1024" version="1.1" xmlns="http://www.w3.org/2000/svg" p-id="3059" xmlns:xlink="http://www.w3.org/1999/xlink" width="64" height="64"><defs><style type="text/css"></style></defs><path d="M879.93828125 883.41875a29.17265625 29.17265625 0 0 0 2.4046875-44.73984375L538.36296875 503.815625a38.7871875 38.7871875 0 0 0-52.77234375 0h-0.1265625l-0.06328125 0.18984375-343.7859375 334.6734375c-13.2890625 12.909375-12.21328125 32.90625 2.4046875 44.73984375a38.91375 38.91375 0 0 0 50.371875-2.1515625l317.5875-309.11203125 317.5875 309.1078125a38.91375 38.91375 0 0 0 50.371875 2.1515625z m0-361.125a29.2359375 29.2359375 0 0 0 2.4046875-44.73984375L538.36296875 142.690625a38.7871875 38.7871875 0 0 0-52.77234375 0l-0.1265625 0.06328125-0.1265625 0.1265625L141.61484375 477.6171875a29.109375 29.109375 0 0 0 2.4046875 44.6765625 38.91375 38.91375 0 0 0 50.371875-2.1515625l317.5875-309.11203125 317.65078125 309.1078125a38.91375 38.91375 0 0 0 50.30859375 2.1515625z" p-id="3060"></path></svg>